<svg width="28" height="32" viewBox="0 0 28 32" version="1.1" xmlns="http://www.w3.org/2000/svg" xmlns:xlink="http://www.w3.org/1999/xlink">
<g id="Canvas" fill="none">
<g id="loading-icon">
<g id="Vector">
<path d="M 12.8839 1.05088C 12.9653 0.473016 13.4004 0 13.8507 0C 14.3009 0 14.7362 0.473016 14.8176 1.05088L 16.1591 10.5707C 16.2405 11.1485 16.7511 11.4448 17.2934 11.2285L 26.2115 7.67686C 26.754 7.46085 27.3822 7.59709 27.6072 7.97953C 27.8321 8.36197 27.6407 8.97003 27.1816 9.33069L 19.6803 15.2215C 19.2212 15.5823 19.2212 16.1724 19.6803 16.533L 27.1814 22.4236C 27.6405 22.7842 27.832 23.4291 27.607 23.8566C 27.382 24.2844 26.7543 24.4562 26.2124 24.2387L 17.3743 20.6919C 16.8324 20.4743 16.326 20.7699 16.2491 21.3484L 14.973 30.9481C 14.8961 31.5265 14.3911 32 13.8508 32C 13.3105 32 12.8054 31.5265 12.7285 30.9481L 11.4524 21.3484C 11.3754 20.7699 10.8691 20.4743 10.3272 20.6919L 1.48914 24.2387C 0.947202 24.4562 0.319454 24.2844 0.0944748 23.8566C -0.130504 23.4291 0.0609609 22.7842 0.520087 22.4236L 8.0212 16.533C 8.48032 16.1724 8.48032 15.5823 8.0212 15.2215L 0.519937 9.33069C 0.0608106 8.97003 -0.130655 8.36197 0.0943245 7.97953C 0.319304 7.5971 0.947502 7.46085 1.49004 7.67686L 10.4081 11.2285C 10.9504 11.4448 11.461 11.1485 11.5424 10.5707L 12.8839 1.05088Z" transform="translate(0 32) scale(1 -1)" fill="#333333"/>
</g>
</g>
</g>
</svg>

